<?xml version="1.0" encoding="UTF-8"?>
<svg id="Capa_2" data-name="Capa 2" xmlns="http://www.w3.org/2000/svg" viewBox="0 0 93.1 40.29">
  <defs>
    <style>
      .cls-1 {
        fill: #fff;
      }
    </style>
  </defs>
  <g id="Capa_1-2" data-name="Capa 1">
    <g>
      <path class="cls-1" d="M54.96,10.61c3.66,0,6.21,2.49,6.21,6.17s-2.62,6.17-6.35,6.17h-3.73v6.09h-3.29V10.61h7.16ZM51.09,20.29h2.99c2.36,0,3.74-1.28,3.74-3.51s-1.37-3.47-3.73-3.47h-3v6.98Z"/>
      <path class="cls-1" d="M63.51,34.02v-2.52c.17.04.73.05.92.05,1.31,0,1.99-.5,2.35-1.75,0-.04.19-.72.18-.75l-4.81-13.55h3.47l3.19,10.83h.05l3.19-10.83h3.35l-4.89,14.07c-1.16,3.36-2.66,4.49-5.74,4.49-.18,0-1.09-.01-1.25-.05"/>
      <path class="cls-1" d="M76.59,19.82c0-5.87,3.33-9.51,8.57-9.51,4.28,0,7.53,2.67,7.94,6.63h-3.24c-.43-2.31-2.31-3.83-4.7-3.83-3.17,0-5.2,2.6-5.2,6.72s2.02,6.73,5.21,6.73c2.44,0,4.19-1.31,4.7-3.54h3.23c-.57,3.94-3.59,6.33-7.94,6.33-5.26,0-8.57-3.61-8.57-9.52"/>
      <path class="cls-1" d="M35.65,31.29s.09-.07.13-.11c.82-.74,1.51-1.57,2.08-2.46.48-.82.9-1.69,1.27-2.6.65-1.79,1.01-3.62,1.14-5.43.13-4.6-1.34-9.07-4.07-12.69-.1-.13-.2-.25-.3-.37.27,1.31.34,2.68.23,4.05-.04,1.69-.36,3.4-.96,5.07-.96,2.67-2.63,5.23-4.97,7.35-1.06.96-2.19,1.77-3.37,2.44-.22.13-.44.25-.66.36-2.83,1.43-6.12,1.88-9.37,1.19.44.78.96,1.53,1.59,2.22,4.52,5,12.21,5.41,17.26.97"/>
      <path class="cls-1" d="M35.43,32.79s-.09.07-.13.11c-5.04,4.44-12.73,4.02-17.26-.97-1.12-1.23-1.93-2.63-2.46-4.1-.16-.44-.29-.88-.4-1.33-1.22-4.97.99-11.27,6.07-15.87.96-.87,1.98-1.63,3.02-2.29,3.14-1.97,6.55-2.94,9.66-2.85C26.38-1.66,14.47-1.9,6.62,5.21,3.75,7.81,1.8,11.05.8,14.52c-1.88,6.49-.46,13.77,4.41,19.15,5.36,5.92,13.44,7.91,20.62,5.81.05-.02.1-.03.16-.05.24-.07.48-.15.72-.23.13-.05.27-.1.4-.15.16-.06.32-.12.48-.18.18-.07.36-.15.53-.22.11-.05.23-.1.34-.15.2-.09.39-.18.58-.28.1-.05.2-.09.29-.14.19-.1.38-.2.56-.3.1-.06.21-.11.31-.17.17-.1.34-.2.5-.3.12-.07.24-.15.36-.23.14-.09.28-.19.42-.28.15-.1.29-.2.43-.3.11-.08.22-.17.34-.25.17-.13.33-.25.5-.38.09-.07.18-.14.27-.22.18-.15.35-.3.53-.45.07-.06.13-.12.2-.18.36-.33.71-.67,1.04-1.02.05-.05.09-.1.13-.15.28-.3.55-.61.81-.93.07-.08.14-.16.21-.25.26-.32.5-.65.73-.99.11-.16.22-.32.32-.48.13-.19.25-.39.37-.59.05-.09.11-.18.16-.27-.57.89-1.26,1.72-2.07,2.46"/>
    </g>
  </g>
</svg>