<?xml version="1.0" encoding="UTF-8"?>
<svg id="Capa_2" data-name="Capa 2" xmlns="http://www.w3.org/2000/svg" viewBox="0 0 58.9 47.3">
  <defs>
    <style>
      .cls-1 {
        fill: #005fc0;
      }
    </style>
  </defs>
  <g id="Capa_1-2" data-name="Capa 1">
    <g>
      <path class="cls-1" d="M58.18,13.71h-1.4c-.26-.95-.63-1.86-1.13-2.72l.99-.99c.14-.14.21-.32.21-.51s-.08-.38-.21-.51l-3.21-3.21c-.28-.28-.74-.28-1.03,0l-.98.99c-.86-.49-1.77-.87-2.72-1.13v-1.39c0-.4-.32-.73-.72-.73h-4.53c-.4,0-.73.32-.73.73v1.39c-.95.26-1.86.63-2.72,1.13l-.98-.99c-.28-.28-.74-.28-1.03,0l-3.21,3.21c-.14.14-.21.32-.21.51s.08.38.21.51l.99.99c-.49.86-.87,1.77-1.13,2.72h-1.4c-.4,0-.73.32-.73.72v4.53c0,.19.07.38.21.51.14.14.32.21.51.21h1.4c.26.95.63,1.87,1.13,2.72l-.99.99c-.28.28-.28.74,0,1.03l3.21,3.21c.14.14.32.21.51.21s.38-.08.51-.21l.99-.99c.86.49,1.77.87,2.72,1.13v1.41c0,.4.33.73.73.73h4.53c.4,0,.72-.32.72-.73v-1.41c.95-.26,1.87-.63,2.72-1.13l.99.99c.14.14.32.21.51.21s.38-.08.51-.21l3.21-3.21c.28-.28.28-.74,0-1.03l-.99-.99c.49-.86.87-1.77,1.13-2.72h1.4c.4,0,.73-.32.73-.73v-4.53c0-.4-.33-.73-.73-.73ZM57.45,18.24h-1.25c-.34,0-.64.24-.71.57-.25,1.18-.72,2.3-1.37,3.32-.19.29-.15.67.1.91l.88.88-2.18,2.18-.88-.88c-.24-.24-.62-.28-.91-.1-1.02.66-2.13,1.12-3.31,1.37-.33.07-.57.37-.57.71v1.25h-3.08v-1.25c0-.34-.24-.64-.57-.71-1.18-.25-2.3-.72-3.31-1.37-.29-.19-.66-.15-.91.1l-.88.88-2.18-2.18.88-.88c.24-.24.28-.62.1-.91-.66-1.02-1.12-2.13-1.37-3.32-.07-.33-.37-.57-.71-.57h-1.25v-3.08h1.25c.34,0,.64-.24.71-.57.25-1.18.72-2.3,1.37-3.31.19-.29.14-.66-.1-.91l-.88-.88,2.18-2.18.88.88c.24.24.62.28.91.1,1.02-.66,2.13-1.12,3.31-1.37.33-.07.57-.37.57-.71v-1.24h3.08v1.24c0,.34.24.64.57.71,1.18.25,2.3.72,3.31,1.37.29.19.66.15.91-.1l.88-.88,2.18,2.18-.88.88c-.24.24-.28.62-.1.91.66,1.02,1.12,2.13,1.37,3.31.07.33.37.57.71.57h1.25v3.08Z"/>
      <path class="cls-1" d="M45.7,10.71c-3.3,0-5.99,2.69-5.99,5.99s2.69,5.99,5.99,5.99,5.99-2.69,5.99-5.99-2.69-5.99-5.99-5.99ZM45.7,21.25c-2.5,0-4.54-2.04-4.54-4.54s2.04-4.54,4.54-4.54,4.54,2.04,4.54,4.54-2.04,4.54-4.54,4.54Z"/>
      <path class="cls-1" d="M38.58,33.14c-4.47-3.67-9.29-6.24-10.94-7.09v-6.55c.99-.87,1.57-2.14,1.57-3.49v-7.84c0-4.51-3.67-8.18-8.18-8.18h-1.68c-4.51,0-8.18,3.67-8.18,8.18v7.84c0,1.35.58,2.62,1.57,3.49v6.55c-1.66.84-6.47,3.41-10.94,7.09-1.14.93-1.79,2.32-1.79,3.8v9.25c0,.61.5,1.12,1.12,1.12s1.12-.5,1.12-1.12v-9.25c0-.81.36-1.57.97-2.08,4.78-3.92,9.95-6.53,10.94-7.01.5-.25.82-.75.82-1.31v-7.57c0-.37-.18-.72-.49-.92-.68-.45-1.08-1.2-1.08-2.01v-7.84c0-3.28,2.67-5.94,5.94-5.94h1.68c3.28,0,5.94,2.66,5.94,5.94v7.84c0,.81-.4,1.56-1.08,2.01-.31.21-.49.55-.49.92v7.55c0,.55.32,1.07.82,1.31,1,.48,6.17,3.09,10.94,7.01.61.5.97,1.26.97,2.08v9.25c0,.61.5,1.12,1.12,1.12s1.12-.5,1.12-1.12v-9.25c0-1.47-.65-2.85-1.79-3.78Z"/>
      <path class="cls-1" d="M22.78,27.57c-.61,0-1.12.5-1.12,1.12,0,.43-.18.81-.48,1.08-.06.04-.12.09-.18.15-.23.16-.52.26-.82.26-.82,0-1.49-.66-1.49-1.49,0-.61-.5-1.12-1.12-1.12s-1.12.5-1.12,1.12c0,.87.31,1.67.81,2.31l-.79,12.89c-.01.33.12.65.37.87l2.49,2.25c.21.2.48.28.75.28s.54-.1.75-.28l2.53-2.28c.25-.22.38-.54.37-.87l-.81-12.67c.6-.66.96-1.52.96-2.48.01-.63-.49-1.13-1.11-1.13ZM20.11,44.68l-1.35-1.23.71-11.14c.23.05.48.07.74.07.2,0,.38-.02.58-.05l.74,11.08-1.41,1.26Z"/>
    </g>
  </g>
</svg>