<?xml version="1.0" encoding="UTF-8"?>
<svg id="Capa_2" data-name="Capa 2" xmlns="http://www.w3.org/2000/svg" viewBox="0 0 46.33 46.33">
  <defs>
    <style>
      .cls-1 {
        fill: #005fc0;
      }
    </style>
  </defs>
  <g id="Capa_1-2" data-name="Capa 1">
    <g>
      <path class="cls-1" d="M44.01,20.85h-.03c-.29-8.56-5.82-16.06-13.9-18.88-.17-1.13-1.14-1.96-2.28-1.97h-9.27c-1.14,0-2.11.84-2.28,1.97C8.16,4.79,2.64,12.29,2.35,20.85h-.03C1.04,20.85,0,21.89,0,23.16v1.54C0,25.99,1.04,27.03,2.32,27.03h41.7c1.28,0,2.32-1.04,2.32-2.32v-1.54c0-1.28-1.04-2.32-2.32-2.32ZM16.22,3.62v13.37c0,.43.35.77.77.77s.77-.35.77-.77V2.32c0-.43.35-.77.77-.77h3.86v16.99c0,.43.35.77.77.77s.77-.35.77-.77V1.54h3.86c.43,0,.77.35.77.77v14.67c0,.43.35.77.77.77s.77-.35.77-.77V3.62c7.19,2.76,12.04,9.53,12.32,17.23H3.89c.29-7.69,5.14-14.47,12.32-17.23ZM44.79,24.71c0,.43-.35.77-.77.77H2.32c-.43,0-.77-.35-.77-.77v-1.54c0-.43.35-.77.77-.77h41.7c.43,0,.77.35.77.77v1.54Z"/>
      <path class="cls-1" d="M19.3,33.97h-10.04c-1.28,0-2.32,1.04-2.32,2.32v3.09c0,.43.35.77.77.77s.77-.35.77-.77v-3.09c0-.43.35-.77.77-.77h10.04c.43,0,.77-.35.77-.77s-.35-.77-.77-.77Z"/>
      <path class="cls-1" d="M45.56,33.98h-3.17c-.37-1.8-1.95-3.09-3.78-3.09H7.72c-2.13,0-3.86,1.73-3.86,3.86H.77c-.43,0-.77.35-.77.77v6.18c0,.43.35.77.77.77h3.32c.68,2.29,2.79,3.86,5.17,3.86h4.63c3.53-.01,6.8-1.87,8.62-4.9.22-.35.69-.46,1.04-.24.1.06.18.14.24.24,1.82,3.03,5.09,4.89,8.62,4.9h4.63c2.68,0,4.96-1.98,5.34-4.63h3.15c.43,0,.77-.35.77-.77v-6.18c0-.43-.35-.77-.77-.77ZM3.86,40.92H1.54v-2.32h2.32v2.32ZM3.86,37.06H1.54v-.77h2.32v.77ZM40.93,40.92c0,2.13-1.73,3.86-3.86,3.86h-4.63c-2.99,0-5.76-1.58-7.3-4.14-.66-1.09-2.07-1.44-3.16-.78-.32.19-.59.46-.78.78-1.54,2.56-4.31,4.13-7.3,4.14h-4.63c-2.13,0-3.86-1.73-3.86-3.86v-6.18c0-1.28,1.04-2.32,2.32-2.32h30.89c1.28,0,2.32,1.04,2.32,2.32v6.18ZM44.79,40.15h-2.32v-2.32h2.32v2.32ZM44.79,36.29h-2.32v-.77h2.32v.77Z"/>
      <path class="cls-1" d="M23.94,33.97h-1.54c-.43,0-.77.35-.77.77s.35.77.77.77h1.54c.43,0,.77-.35.77-.77s-.35-.77-.77-.77Z"/>
    </g>
  </g>
</svg>