<?xml version="1.0" encoding="UTF-8"?>
<svg id="Capa_2" data-name="Capa 2" xmlns="http://www.w3.org/2000/svg" viewBox="0 0 37.99 37.98">
  <defs>
    <style>
      .cls-1 {
        fill: #00b4ff;
      }
    </style>
  </defs>
  <g id="Capa_1-2" data-name="Capa 1">
    <g>
      <path class="cls-1" d="M37.99,6.34v-1.53c-.38-2.2-2.03-4.17-4.26-4.64-.4-.08-.79-.07-1.16-.18h-.15c-.4.1-.81.1-1.22.19-2.24.47-3.89,2.5-4.25,4.7h-2.4c.17-1.41-.53-2.84-1.86-3.38-1.29-.52-2.98-.2-4.36-.29-.23-.5-.66-.94-1.19-1.11-.18-.06-.41.02-.54-.11H7.96l-.63.17c-.52.2-.78.63-1.1,1.04C3.86,1.25.78.73.11,3.73-.11,12.85.08,22,.01,31.13c.11,1.64,1.04,2.9,2.72,3.17h15.57c.19.83.63,1.66,1.56,1.82.21.04,1.03-.01,1.08.03.03.03.21.61.33.78,1.18,1.74,3.89,1.23,4.43-.78,1.66-.03,3.32,0,4.98-.02.73,2.45,4.06,2.47,4.8.02,1.18.11,2.09-.23,2.51-1.39v-6.88l-2.18-2.83h-2.71v-13.98c2.53-.32,4.44-2.26,4.89-4.74ZM24.54,6.19h2.44c.25,2.27,1.81,4.04,3.97,4.7.29.09.62.07.84.23v13.94h-1.15v-2.44h-6.11V6.19ZM23.32,23.91h2.37v1.15h-2.37v-1.15ZM18.43,2.52h3.25c.22,0,.86.33,1.03.49.1.09.53.77.53.84v18.76h-1.15V4.62s-.3-.51-.37-.57c-.16-.16-.69-.38-.9-.38h-2.41v-1.15ZM7.42,1.95c.01-.13.09-.39.18-.47.1-.1.39-.18.55-.18l8.6.04c.16.08.34.2.38.39.05.28.04,2.65-.03,2.87-.07.2-.26.3-.46.3l-8.85-.02c-.22-.12-.33-.31-.36-.56-.06-.52-.06-1.85,0-2.37ZM18.35,33H2.65c-.59,0-1.44-1.19-1.34-1.79V4.31c-.02-.79.85-1.79,1.65-1.79h3.17v1.15h-2.41s-.45.13-.53.16c-.5.22-.7.73-.74,1.25v25.45c-.07.45.51,1.33.96,1.33h14.94v1.15ZM18.47,22.61s-.11.11-.11.11v7.83H3.76V4.97h2.48c.06.02.22.41.31.53.35.44.81.66,1.37.7,2.9.22,6.08-.16,9.01,0,.57-.11.98-.46,1.27-.95.06-.1.06-.27.07-.27h2.52v17.65h-2.33ZM21.12,34.35c-.11.19-.09.47-.28.49-.99.12-1.28-.14-1.19-1.15h1.99c-.17.23-.38.41-.52.66ZM23.05,36.67c-1.23-.15-1.27-2.17.1-2.36,1.64-.23,1.9,2.6-.1,2.36ZM19.65,32.39v-8.48h2.37v2.44h4.97v-2.44h2.37v8.48h-9.7ZM30.72,34.83h-4.98c-.24-.39-.4-.81-.74-1.14h6.42c-.3.34-.61.67-.7,1.14ZM32.83,36.67c-1.23-.15-1.27-2.17.1-2.36,1.64-.23,1.9,2.6-.1,2.36ZM35.65,34.84c-.35-.04-.24-.26-.4-.51-.14-.23-.3-.43-.47-.64h1.91c.08.92-.04,1.28-1.04,1.15ZM35.2,26.36c.12.3,1.49,1.83,1.49,1.95v4.09h-6.04v-6.04h4.55ZM28.71,7.55c-1.42-2.72.41-6.03,3.45-6.23,3.58-.24,5.83,3.78,3.74,6.72-1.8,2.55-5.75,2.27-7.2-.49Z"/>
      <path class="cls-1" d="M4.91,23.34v6.07h7.41v-6.19h-7.3s-.11.11-.11.11ZM6.2,24.52h4.81v3.59h-4.81v-3.59Z"/>
      <path class="cls-1" d="M11.63,14.78v1.18h8.02v-1.3h-7.91s-.11.11-.11.11Z"/>
      <path class="cls-1" d="M11.63,12.34v1.18h8.02v-1.3h-7.91s-.11.11-.11.11Z"/>
      <path class="cls-1" d="M11.63,19.67v1.18h8.02v-1.3h-7.91s-.11.11-.11.11Z"/>
      <path class="cls-1" d="M11.63,7.45v1.18h8.02v-1.3h-7.91s-.11.11-.11.11Z"/>
      <path class="cls-1" d="M6.16,20.48c.06.04.08.1.19.07,1.23-1.88,2.76-3.58,3.96-5.45-.01-.07-.82-.72-.88-.73-.26-.05-2.84,3.81-3.31,4.24l-.73-.65-.88.88c.54.42,1.1,1.27,1.64,1.64Z"/>
      <path class="cls-1" d="M6.16,13.14c.06.04.08.1.19.07,1.23-1.88,2.76-3.58,3.96-5.45-.01-.07-.82-.72-.88-.73-.26-.05-2.84,3.81-3.31,4.24l-.73-.65-.88.88c.54.42,1.1,1.27,1.64,1.64Z"/>
      <path class="cls-1" d="M17.21,17.11h-5.46s-.11.11-.11.11v1.18h5.58v-1.3Z"/>
      <path class="cls-1" d="M17.21,9.78h-5.46s-.11.11-.11.11v1.18h5.58v-1.3Z"/>
      <path class="cls-1" d="M13.46,23.34v1.18h3.74v-1.3h-3.63s-.11.11-.11.11Z"/>
      <path class="cls-1" d="M13.46,25.78v1.18h3.74v-1.3h-3.63s-.11.11-.11.11Z"/>
      <path class="cls-1" d="M13.46,28.23v1.18h3.74v-1.3h-3.63s-.11.11-.11.11Z"/>
      <path class="cls-1" d="M18.35,9.89v1.18h1.3v-1.3h-1.18s-.11.11-.11.11Z"/>
      <path class="cls-1" d="M18.35,17.23v1.18h1.3v-1.3h-1.18s-.11.11-.11.11Z"/>
      <polygon class="cls-1" points="31.22 6.49 30.46 5.73 29.58 6.61 31.19 8.22 35.39 4.16 34.44 3.29 31.22 6.49"/>
    </g>
  </g>
</svg>