<?xml version="1.0" encoding="UTF-8"?>
<svg id="Capa_2" data-name="Capa 2" xmlns="http://www.w3.org/2000/svg" viewBox="0 0 37.29 39.12">
  <defs>
    <style>
      .cls-1 {
        fill: #00b4ff;
      }
    </style>
  </defs>
  <g id="Capa_1-2" data-name="Capa 1">
    <g>
      <path class="cls-1" d="M36.1,4.82h-3.02c.2-1.66-.72-2.28-2.29-2.06.19-3.68-5.21-3.67-5.04,0-1.58-.22-2.49.4-2.29,2.06h-3.02c-.55,0-1.09.77-1.16,1.28-.13.93-.11,3.37-.02,4.34.05.51.4,1.03.95.71.08-.04.28-.27.28-.33v-4.66s.11-.11.11-.11h2.86c-.02.95.45,1.54,1.41,1.61,2.28.17,4.79-.12,7.09-.02.77-.16,1.19-.82,1.13-1.59h2.86s.11.11.11.11v19.02s-.11.11-.11.11h-15.36s-.11-.11-.11-.11v-11.99s-.27-.29-.31-.3c-.4-.18-.92.12-.92.53v1.49H1.18c-.7.12-1,.59-1.18,1.22v7.18c.14.37.53.6.92.42.04-.02.31-.28.31-.3v-7.18s.11-.11.11-.11h8.37v5.84c0,.47.59.89,1.03.89.62,0,1.61-1.12,2.15-1.45.77.4,1.69,1.8,2.65,1.35.12-.06.51-.46.51-.56v-6.07h3.21v9.13s.14.45.17.52c.2.43.63.68,1.09.75h15.43c.89-.08,1.26-.64,1.34-1.49V6.31c.05-.57-.61-1.49-1.19-1.49ZM31.86,6.42h-7.18v-2.44c.76-.25,1.58.25,2.1-.54.28-.43.12-.6.15-.99.1-1.29,1.79-1.75,2.47-.63.38.62-.05,1.34.53,1.86.5.45,1.33.08,1.93.3v2.44ZM14.9,21.4c-.56-.26-1.4-1.32-2.02-1.29-.61.03-1.41,1-1.95,1.29v-5.27h3.97v5.27Z"/>
      <path class="cls-1" d="M24.6,28.54l-.04,9.28-.17.14-23.17-.06v-12.11c0-.51-1.13-.56-1.22.11v13.22h24.83c.48-.26.82-.53.92-1.11v-9.48c-.06-.74-1.09-.74-1.15,0Z"/>
      <path class="cls-1" d="M9.44,26.97c-.2-.28-1.77-1.78-2.06-1.98-.41-.29-.76-.3-1.2-.05-.3.17-2.01,1.69-2.24,1.96-.68.84.02,1.81,1.03,1.67.12.12-.07,2.89,0,3.4.15.97,1.58.89,2.33.81.57-.06.96-.36,1.03-.96.11-1.01-.09-2.22,0-3.25.95.16,1.7-.78,1.11-1.61ZM7.38,27.44c-.07.04-.27.38-.27.41v3.71h-.92v-3.55c-.07-.51-.44-.67-.92-.69l1.42-1.26c.19-.03,1.08,1.18,1.4,1.22l-.72.16Z"/>
      <path class="cls-1" d="M3.56,35.07c1.93-.16,4.22.22,6.11,0,.79-.09.77-1.12-.15-1.22-1.81-.2-4.01.14-5.86.02-.73.13-.83,1-.09,1.2Z"/>
      <path class="cls-1" d="M28.3,18.27c1.7.19,3.75-.14,5.5,0,.73-.18.73-1.03,0-1.21h-5.71c-.69.32-.58,1.13.21,1.22Z"/>
      <path class="cls-1" d="M33.8,10.1h-5.71c-.66.26-.57,1.1.14,1.21h5.57c.73-.18.73-1.03,0-1.21Z"/>
      <path class="cls-1" d="M33.81,13.6l-5.79.02c-.5.28-.48.92.06,1.13h5.8c.64-.1.6-1.12-.07-1.15Z"/>
      <path class="cls-1" d="M33.81,20.56l-5.79.02c-.5.28-.48.92.06,1.13h5.8c.64-.1.6-1.12-.07-1.15Z"/>
      <path class="cls-1" d="M22.57,32.78c.72-.11.74-1.11.08-1.21-.49-.08-3.52-.09-3.95.01-.63.14-.62,1.09.14,1.2.64.09,3.11.1,3.73,0Z"/>
      <path class="cls-1" d="M18.68,35.07c1.21-.13,2.8.18,3.97,0,.68-.11.67-1.09-.16-1.21-.64-.09-3.02-.09-3.64.01-.74.12-.84.91-.17,1.2Z"/>
      <path class="cls-1" d="M22.81,21.4c.03.07.96,1,1.03,1.03.13.06.28.06.41.04.25-.05,1.62-1.39,1.79-1.65.35-.56.04-1.15-.62-1-.34.07-1.22,1.21-1.32,1.21-.03,0-.26-.28-.35-.34-.56-.35-1.21.11-.95.72Z"/>
      <path class="cls-1" d="M23.73,11.91c.23.14.39.16.64.05.18-.08,1.66-1.51,1.75-1.69.13-.25.13-.57-.09-.77-.76-.7-1.44.97-1.86,1.04-.15.03-.48-.59-1.02-.42-.98.31.13,1.52.59,1.79Z"/>
      <path class="cls-1" d="M24.16,17.49c-.23.06-.39-.34-.63-.42-.52-.16-.89.32-.73.81.04.14.83.94.97,1.02.22.13.39.14.62.03.14-.07,1.66-1.58,1.73-1.71.12-.24.1-.58-.09-.77-.71-.71-1.42.92-1.87,1.04Z"/>
      <path class="cls-1" d="M22.81,14.44c.08.19,1.23,1.36,1.56,1.03.3-.44,1.67-1.45,1.8-1.87.16-.49-.27-.86-.75-.75-.34.07-1.22,1.21-1.32,1.21-.03,0-.32-.37-.49-.42-.55-.17-1.04.26-.8.8Z"/>
    </g>
  </g>
</svg>