<?xml version="1.0" encoding="UTF-8"?>
<svg id="Capa_2" data-name="Capa 2" xmlns="http://www.w3.org/2000/svg" viewBox="0 0 34.61 34.61">
  <defs>
    <style>
      .cls-1 {
        fill: #005fc0;
      }
    </style>
  </defs>
  <g id="Capa_1-2" data-name="Capa 1">
    <g>
      <path class="cls-1" d="M33.6,1.66v6.81c.12.44.81.42,1.01.05V1.08c-.22-.53-.56-.86-1.08-1.08H1.08C.51.26.06.65,0,1.32v31.98c.05.68.64,1.27,1.32,1.32h31.98c.66-.06,1.06-.51,1.32-1.08V10.07c-.35-.4-.88-.39-1.02.17v22.65c.05.27-.23.71-.5.71h-2.87V1.01h2.87c.24,0,.53.39.51.64ZM4.4,13.15v20.45H1.52c-.27,0-.55-.44-.51-.71V1.79c-.06-.29.21-.77.51-.77h2.87v10.51c0,.42,1.08.47,1.08-.14v-5.91h3.85v16.59l-3.85,3.82v-12.54s-.14-.34-.17-.37c-.26-.3-.91-.02-.91.17ZM29.14,33.59H5.48v-3.38h23.66v3.38ZM10.41,29.13v-1.72l3.85-3.82v5.54h-3.85ZM19.51,22.43c.37.22.75-.06.82-.45l.05-4.55,3.82-3.79v15.48h-3.85v-5.17c0-.61-1.08-.6-1.08-.14v5.31h-3.92v-6.66l3.92-3.89v3.55c0,.05.18.26.24.3ZM29.14,29.13h-3.85V12.54l3.85-3.82v20.41ZM29.14,7.2L7.2,29.13h-1.72v-1.72L27.41,5.48h1.72v1.72ZM10.41,20.95V5.48h3.85v11.66l-3.85,3.82ZM15.35,16.02V5.48h3.92v6.66l-3.92,3.89ZM20.35,11.02v-5.54h3.85v1.72l-3.85,3.82ZM29.14,4.39H5.48V1.01h23.66v3.38Z"/>
      <path class="cls-1" d="M32.29,3.29c.32-.32.21-1.27-.37-1.32-.56-.05-.62.63-.55,1.03.07.43.63.58.92.29Z"/>
      <path class="cls-1" d="M31.55,32.52c.68.55,1.23-.71.74-1.2-.7-.69-1.32.73-.74,1.2Z"/>
      <path class="cls-1" d="M2.73,3.44c.63-.02.66-1.03.36-1.33-.81-.81-1.45,1.36-.36,1.33Z"/>
      <path class="cls-1" d="M2.24,32.33c.15.3.6.4.85.16.23-.23.24-1.03-.05-1.23-.66-.44-1.1.48-.8,1.07Z"/>
      <path class="cls-1" d="M17.36,16.64c-.65.08-1.08,1.23-.27,1.33.83.1,1.32-1.45.27-1.33Z"/>
      <path class="cls-1" d="M26.7,8.01c.51.52,1.52-.49,1.06-1.03-.47-.55-1.61.48-1.06,1.03Z"/>
      <path class="cls-1" d="M7.35,26.65c-.56.13-.93,1.16-.21,1.27.96.14,1.35-1.52.21-1.27Z"/>
    </g>
  </g>
</svg>