<?xml version="1.0" encoding="UTF-8"?>
<svg id="Capa_2" data-name="Capa 2" xmlns="http://www.w3.org/2000/svg" viewBox="0 0 43.41 47.23">
  <defs>
    <style>
      .cls-1 {
        fill: #0061c6;
      }
    </style>
  </defs>
  <g id="Capa_1-2" data-name="Capa 1">
    <g>
      <path class="cls-1" d="M43.11,30.73l-6.47-11.26c-.28-4.1.3-8.55-.02-12.6-.09-1.11-.67-2.15-1.58-2.78-1.92-1.32-5.39-.4-7.65-.7C26.36,1.79,25.63.18,23.47,0c-2.16-.18-5.14,2.53-7.12,3.38-2.19.33-5.98-.59-7.85.59-1.88,1.18-1.77,3.05-1.8,5.03l-5.21,3.04C.72,12.66.12,13.72,0,14.7c-.02.18.01.38,0,.57.16.16.09.44.14.67.08.34.26.69.42,1.01,1.8,3.6,4.41,7.05,6.17,10.71v4.49c-4.02,1.04-5.09,6.28-2,8.99.22,1.65-.22,3.8.02,5.38.06.4.35.54.66.72h.28l2.51-1.42,2.61,1.42h.19c.13-.07.66-.42.66-.52v-2.99h4.31c.96,1.56,1.73,3.2,3.8,3.4,2.31.22,5.22-2.49,7.31-3.38,2.98-.42,7.82,1.27,9.24-2.33.44-1.11.14-2.04.35-3.15l5.16-3c1.4-1.06,1.94-2.9,1.25-4.53ZM22.16,1.81c1.56-.67,2.76.15,3.35,1.6h-6.07l2.71-1.6ZM2.08,16.47c-.68-1.05-.69-2.28.3-3.15l4.36-2.51v13.56l-4.66-7.9ZM10.15,45.05c-.09.1-1.57-.95-1.94-.95-.55,0-1.38.83-1.94.95v-2.94c1.29.33,2.64.48,3.89-.09-.13,1.02.06,2.01,0,3.03ZM8.58,40.86c-4.92.45-5.45-6.77-1.1-7.36,5.38-.73,5.85,6.93,1.1,7.36ZM21.22,45.35c-1.61.69-2.73-.19-3.38-1.63h6.16l-2.78,1.63ZM35.1,39.98c.06.9-.94,2.23-1.85,2.23H11.67c.04-.32-.07-.77.02-1.07.03-.11.86-1.01,1.04-1.33,1.33-2.35.77-5.18-1.35-6.84-.92-.72-2-.97-3.13-1.15V7.25c.13-1.43.97-2.27,2.42-2.33h22.1c1.31.06,2.21.92,2.32,2.23v32.82ZM41.07,33.91l-4.46,2.61v-13.94l4.76,8.19c.68,1.05.69,2.28-.3,3.15Z"/>
      <path class="cls-1" d="M25.61,13.61c.4-.63.67-.33,1.16-.36,1.42-.09,2.33-1.55,1.64-2.83-.23-.42-3.6-3.82-4.08-4.17-.45-.32-.94-.45-1.49-.36-.82.14-1.55,1.01-1.58,1.83,0,.25.21.66.09.85l-3.75,3.75c-.75.05-1.2-.17-1.88.29-1.19.81-.98,2.09-.16,3.07.5.6,3.4,3.53,3.92,3.76,1.03.47,2.47-.08,2.7-1.23.14-.69-.33-1.29.53-1.63,1.74,1.67,3.27,3.57,4.94,5.31.62.64,1.47,1.7,2.37,1.8,2.49.27,3.53-2.49,1.95-4.22l-6.36-5.88ZM23.12,7.4c.11-.03.19,0,.27.08l3.55,3.56c.3.26.09.72-.31.6l-3.68-3.63c-.19-.19-.07-.55.17-.61ZM19.97,17.92c-.57-.41-2.87-2.73-3.32-3.32-.18-.24-.41-.62.02-.75.14-.04.26-.02.36.08l3.56,3.56c.28.47-.11.79-.62.43ZM21.2,15.83l-2.41-2.5,3.56-3.56,2.5,2.41-3.65,3.65ZM29.88,21.96l-6.03-6.41c-.12-.24.53-.64.67-.85l6.44,5.98c.64.79-.21,2.05-1.09,1.28Z"/>
      <path class="cls-1" d="M31.83,27.59l-20.47.02c-.99.39-.76,1.51.26,1.59h20.01c1.17.03,1.45-1.46.19-1.61Z"/>
      <path class="cls-1" d="M11.72,25.23c2.82.26,6.05-.21,8.92,0,1.01-.04.88-1.28.81-2.05-.1-1.13-1.1-2.13-2.23-2.23-2.07-.19-4.43.13-6.52.03-1.1.31-1.85,1.15-1.97,2.3-.1.97-.16,1.84.99,1.95ZM13.33,22.47c1.82-.18,3.93.14,5.78.01.5.13.89.6.81,1.13h-7.68c.05-.71.39-1.08,1.09-1.14Z"/>
      <path class="cls-1" d="M31.73,30.82l-17.71.02c-1.08.26-.91,1.51.17,1.59h17.64c1.2-.14,1.03-1.54-.1-1.61Z"/>
      <path class="cls-1" d="M31.83,34.52l-16.39.02c-.98.18-.94,1.47.45,1.59,5,.43,10.59-.33,15.65,0,1.23.05,1.6-1.39.28-1.62Z"/>
      <path class="cls-1" d="M31.83,38.12l-16.39.02c-.98.18-.94,1.47.45,1.59,5,.43,10.59-.33,15.65,0,1.23.05,1.6-1.39.28-1.62Z"/>
      <path class="cls-1" d="M7.86,34.55c-.98.12-2.06,1.05-2.23,2.04-.49,2.86,3.01,4.34,4.66,2.1,1.38-1.86-.2-4.41-2.43-4.14ZM7.75,38.12c-.9-.37-.79-1.76.1-1.96,2.03-.47,1.64,2.67-.1,1.96Z"/>
    </g>
  </g>
</svg>