<?xml version="1.0" encoding="UTF-8"?>
<svg id="Capa_2" data-name="Capa 2" xmlns="http://www.w3.org/2000/svg" viewBox="0 0 42.85 42.8">
  <defs>
    <style>
      .cls-1 {
        fill: #0061c6;
      }
    </style>
  </defs>
  <g id="Capa_1-2" data-name="Capa 1">
    <g>
      <path class="cls-1" d="M42.83,28.97c-.17-.72-.27-1.45-.47-2.16-.95-3.26-3.39-6.13-6.42-7.63-.23-.11-1.33-.49-1.37-.61l-.03-7.13-2.62-5.88,2.6-4.52c.15-.49.01-.71-.31-1.04H.41C.3.21.04.29.06.56l.02,9.38,3.77,4.42.17.34c-.19.89-1.12,2.27-1.2,3.1-.08.79.5,1.93.58,2.75L.06,25.31c.13,1.39-.19,3.14,0,4.48.02.13.27.56.39.56h17.55c-.14,5.79,4.19,11.06,9.83,12.2,7.05,1.43,14.37-3.53,15.01-10.82.08-.88-.06-1.87,0-2.76ZM13.86,1.38h6.9v11.38l-3.06-3.02c-.22-.13-.56-.13-.79,0l-3.06,3.02V1.38ZM1.44,28.97v-3.15c0-.27,2.87-3.85,3.17-4.44l3.47.05,3.23,3.23.99-.99-2.92-2.94c.14-.2,1.23-1.41,1.33-1.41h4.53v-1.38h-5.13l-2.09,2.05-3.22-.02c-.08-.06-.51-1.82-.51-1.98.03-.72,1.1-2.39,1.27-3.22.04-.19.05-.38,0-.57L1.44,9.35V1.38h11.04v13.41c0,.23.78.56,1.03.34l3.76-3.74c1.34,1.15,2.54,2.51,3.83,3.74.25.22,1.03-.11,1.03-.34V1.38h10.43l-2.03,3.7c-.55.36-3.6,3.89-3.87,3.89h-1.77v1.38h1.77c.12,0,1.43,1.52,1.68,1.68v1.77h1.38v-2.37c0-.12-1.75-1.6-1.72-1.8l2.92-2.81,2.24,5.13v6.25c-7.14-1.64-14.46,3.45-15.09,10.78H1.44ZM39.67,36.29c-4.89,7.62-16.46,6.36-19.59-2.13-2.58-7.02,2.5-14.6,9.96-14.83,8.81-.26,14.42,9.48,9.62,16.95Z"/>
      <path class="cls-1" d="M29.27,20.72c-7.52.7-11.21,10.07-6.32,15.84,4.38,5.17,12.63,4.46,15.92-1.5,3.87-7-1.73-15.08-9.6-14.34ZM37.43,34.65c-3.08,5.04-10.4,5.28-13.78.43-3.73-5.35-.02-12.77,6.48-12.99,6.54-.21,10.72,6.96,7.3,12.56Z"/>
      <path class="cls-1" d="M29.96,23.47c-.78.12-1.38.78-1.6,1.51.1,1.8-.21,3.91-.02,5.67.25,2.32,3.75,2.34,4.12.15.17-.99.14-4.53.02-5.58-.14-1.27-1.32-1.94-2.52-1.75ZM31.09,30.3c-.14.97-1.27.99-1.38-.16-.09-1-.12-3.61.01-4.57.05-.35.27-.69.65-.72.51-.03.68.46.72.88.09,1,.12,3.61-.01,4.57Z"/>
      <path class="cls-1" d="M29.96,33.13c-2.47.42-2.06,4.61.91,4.1,2.46-.42,2.07-4.61-.91-4.1ZM30.44,35.84c-.84.05-.93-1.28-.06-1.33.84-.05.93,1.28.06,1.33Z"/>
    </g>
  </g>
</svg>