<?xml version="1.0" encoding="UTF-8"?>
<svg id="Capa_2" data-name="Capa 2" xmlns="http://www.w3.org/2000/svg" viewBox="0 0 41.58 41.59">
  <defs>
    <style>
      .cls-1 {
        fill: #00b4ff;
      }
    </style>
  </defs>
  <g id="Capa_1-2" data-name="Capa 1">
    <g>
      <path class="cls-1" d="M40.97,35.79c-3.09-5.09-6.22-10.16-9.37-15.22-.33-.53-.8-1.13-1.35-1.34-1.04-.39-1.11-1.07-1.1-2,.05-3.05.02-6.1.01-9.14,0-.43-.02-.86-.06-1.29-.2-2.03-1.6-3.32-3.66-3.35-1.27-.02-2.54,0-3.8,0-.82,0-1.67.15-2.36-.51-.13-.13-.41-.16-.61-.13-.6.07-.89-.21-1.19-.71-1.52-2.56-5.11-2.82-6.9-.47-.52.68-.9,1.39-1.91,1.22-.09-.02-.22.05-.29.12-.56.56-1.26.5-1.96.49-.86-.01-1.73,0-2.59,0C1.44,3.46,0,4.9,0,7.28c0,4.75,0,9.49,0,14.24,0,4.83,0,9.66,0,14.48,0,1.63,1.06,3.03,2.59,3.39.57.13,1.18.16,1.77.16,3.45.01,6.91,0,10.36.03.39,0,.91.2,1.15.49.84.99,1.84,1.52,3.16,1.51,6.23-.02,12.46,0,18.69,0,3.09,0,4.87-3.12,3.25-5.79ZM20.85,4.99c1.56.02,3.13-.01,4.69.01,1.22.02,2.01.81,2.02,2.05.02,3.67-.01,7.34.02,11.01,0,.82-.54.86-1.23,1.09v-1c0-3.35,0-6.69,0-10.04,0-1.4-.5-1.89-1.9-1.9-1.19,0-2.37,0-3.56,0-.42,0-.73-.02-.73-.59,0-.52.22-.64.69-.63ZM9.14,5.78c0-1.3,0-1.26,1.24-1.48.32-.06.72-.39.86-.69.62-1.4,1.36-2.02,2.61-2.02,1.27,0,2.1.59,2.61,1.99.23.64.66.82,1.25.76.68-.07.97.13.94.88-.08,1.92.26,1.66-1.68,1.68-1.05.01-2.1,0-3.15,0-1.32,0-2.64-.01-3.96,0-.51,0-.76-.17-.71-.7.01-.13,0-.27,0-.4ZM15.17,37.59c-.1.2-.5.35-.76.36-2.43.03-4.85.02-7.28.02-1.13,0-2.27.01-3.4,0-1.48-.02-2.18-.72-2.18-2.19,0-4.77,0-9.55,0-14.32,0-4.69,0-9.38,0-14.08,0-1.65.72-2.38,2.35-2.38,1.02,0,2.05.01,3.07,0,.43,0,.64.12.64.59,0,.45-.16.63-.62.62-.86-.02-1.73-.02-2.59,0-1.08.03-1.65.59-1.65,1.67,0,9.09,0,18.18,0,27.27,0,1.09.53,1.6,1.67,1.6,3.34.01,6.69,0,10.03,0,.71,0,.98.29.71.84ZM15.41,35.21c-3.42-.02-6.85-.03-10.27,0-.7,0-.85-.26-.85-.9.02-4.31.01-8.63.01-12.94,0-4.23.02-8.47-.02-12.7,0-.76.23-1.01.97-.93.48.05.97.02,1.46,0,.57-.02,1.07.04,1.57.43.32.25.86.29,1.31.29,2.86.02,5.72.04,8.57-.01.55-.01,1.1-.33,1.65-.5.22-.07.45-.19.67-.2,1.21-.02,2.43.01,3.64-.02.53-.01.7.19.7.71-.01,4.07,0,8.14-.02,12.21,0,.32-.15.68-.33.97-2.64,4.32-5.31,8.64-7.95,12.96-.27.44-.58.63-1.1.62ZM37.52,40.07c-3.04-.11-6.09-.03-9.14-.03s-6.1-.08-9.14.03c-2.12.08-3.07-2.03-2.07-3.63,3.11-4.99,6.16-10.01,9.25-15.01,1.03-1.66,2.89-1.66,3.92,0,3.09,5,6.14,10.03,9.25,15.01,1.03,1.65,0,3.7-2.07,3.63Z"/>
      <path class="cls-1" d="M22.62,19.33c-2.83,0-5.65,0-8.48,0-.53,0-1.01.16-1,.8,0,.64.5.74,1.03.74,1.4,0,2.8,0,4.2,0,1.4,0,2.8,0,4.2,0,.54,0,1-.12,1-.77,0-.59-.44-.76-.94-.77Z"/>
      <path class="cls-1" d="M14.17,13.26c1.4,0,2.8,0,4.2,0,1.37,0,2.74,0,4.11,0,.55,0,1.08-.05,1.08-.77,0-.64-.51-.77-1.02-.77-2.8,0-5.59,0-8.39,0-.52,0-1.01.16-1,.8,0,.65.5.74,1.03.74Z"/>
      <path class="cls-1" d="M7.7,24.69c.56.5,1,.44,1.38-.22.38-.68.71-1.39,1.06-2.09.54-1.08,1.12-2.15,1.59-3.27.11-.26-.16-.69-.26-1.03-.35.11-.75.15-1.03.35-.22.15-.29.5-.42.77-.6,1.2-1.21,2.39-1.86,3.69-.26-.22-.4-.33-.54-.46-.36-.32-.76-.46-1.15-.08-.42.41-.27.83.09,1.2.38.38.75.78,1.15,1.14Z"/>
      <path class="cls-1" d="M11.48,25.75c-.27-.1-.7.03-.98.2-.2.12-.28.44-.4.68-.63,1.25-1.25,2.5-1.93,3.86-.26-.22-.43-.35-.59-.48-.38-.32-.77-.41-1.14-.02-.37.4-.24.79.1,1.14.42.42.83.85,1.27,1.25.42.37.92.35,1.17-.13.98-1.86,1.91-3.74,2.81-5.64.1-.21-.11-.78-.3-.85Z"/>
      <path class="cls-1" d="M7.64,17.04c.62.57,1.08.51,1.48-.22.45-.83.85-1.68,1.27-2.52.46-.91.96-1.81,1.33-2.76.11-.27-.04-.82-.27-1.01-.39-.33-.81-.09-1.06.34-.14.23-.25.48-.37.72-.6,1.2-1.21,2.4-1.86,3.7-.23-.19-.38-.29-.52-.41-.38-.34-.79-.53-1.2-.11-.46.46-.21.88.17,1.25.34.34.67.7,1.03,1.02Z"/>
      <path class="cls-1" d="M18.56,26.97c-1.53-.08-3.06-.08-4.59,0-.29.01-.74.46-.8.77-.1.5.34.73.84.73.75,0,1.5,0,2.26,0s1.5,0,2.26,0c.53,0,.99-.24.89-.77-.05-.3-.54-.72-.85-.73Z"/>
      <path class="cls-1" d="M14.06,16.02c.65,0,1.29,0,1.94,0,.62,0,1.24,0,1.86,0,.49,0,.86-.16.88-.72.02-.55-.36-.78-.83-.79-1.29-.03-2.59-.03-3.88,0-.5,0-.92.24-.89.83.03.54.43.7.91.7Z"/>
      <path class="cls-1" d="M15.94,23.62c.67,0,1.36.06,2.02-.03.28-.04.75-.45.73-.63-.05-.31-.4-.79-.65-.81-1.4-.08-2.8-.08-4.2,0-.25.01-.61.5-.65.81-.03.18.45.58.74.62.66.09,1.34.03,2.02.03Z"/>
      <path class="cls-1" d="M16.73,29.76c-.99-.09-1.99-.08-2.98,0-.23.02-.56.51-.57.79-.01.2.4.55.67.62.43.11.91.03,1.37.03h0c.46,0,.94.09,1.37-.02.3-.08.72-.41.74-.65.02-.26-.36-.76-.6-.78Z"/>
      <path class="cls-1" d="M28.33,33.31c1.19.03,2.17-.88,2.19-2.13.04-2.08.03-4.15,0-6.23-.02-1.26-.96-2.14-2.18-2.13-1.21.01-2.09.91-2.11,2.19-.02,1,0,2,0,2.99,0,.51,0,1.03,0,1.54,0,.54-.01,1.08,0,1.62.04,1.21.93,2.12,2.09,2.15ZM27.81,25.16c0-.26.39-.5.6-.76.19.27.53.53.55.81.07.94.03,1.88.03,2.82,0,.97.04,1.94-.03,2.9-.02.28-.37.54-.57.81-.2-.26-.58-.52-.58-.78-.05-1.93-.05-3.87,0-5.8Z"/>
      <path class="cls-1" d="M28.32,34.54c-1.17.03-2.12,1.05-2.08,2.23.04,1.16.99,2.06,2.16,2.05,1.19,0,2.15-.99,2.13-2.17-.02-1.16-1.05-2.15-2.21-2.11ZM28.42,37.49c-.28-.33-.61-.55-.59-.72.03-.24.32-.45.5-.67.21.2.53.37.59.61.04.16-.26.42-.51.78Z"/>
    </g>
  </g>
</svg>