<?xml version="1.0" encoding="UTF-8"?>
<svg id="Capa_2" data-name="Capa 2" xmlns="http://www.w3.org/2000/svg" viewBox="0 0 42.48 42.52">
  <defs>
    <style>
      .cls-1 {
        fill: #00b4ff;
      }
    </style>
  </defs>
  <g id="Capa_1-2" data-name="Capa 1">
    <path class="cls-1" d="M42.44,20.95c-.2-1.34-1.25-2.16-2.59-2.12-.16,0-.32-.02-.53-.03,0-.34.02-.62,0-.9-.11-1.14-.14-2.3-.37-3.42C37.17,5.78,29.55-.02,21.4,0c-5.82.02-10.58,2.31-14.25,6.81-2.63,3.23-3.87,6.99-3.96,11.15,0,.3.12.63-.13.89-1.65-.06-2.6.54-2.95,1.91-.17.65-.12,1.3.1,1.95.7,2.07,1.36,4.14,2.05,6.21.35,1.06.7,2.12,1.09,3.17.4,1.08,1.07,1.94,2.06,2.57.97.62,1.9,1.28,2.84,1.95.29.21.55.47.87.76-.21.1-.3.15-.41.19-.76.24-1.12.75-1.1,1.55.01.66,0,1.32,0,1.98,0,.5.17.94.6,1.16.34.17.76.26,1.14.26,1.87.03,3.73.01,5.6.01.86,0,1.72.01,2.59,0,1.15-.02,1.63-.5,1.65-1.62,0-.57-.03-1.15,0-1.72.07-.88-.52-1.62-1.46-1.67-.11,0-.22-.05-.36-.08-.14-.58-.28-1.15-.41-1.71,1.48.13,2.9.35,4.32.34,1.41,0,2.82-.22,4.27-.35-.15.6-.3,1.17-.44,1.72-.33.07-.58.1-.83.18-.57.19-.94.59-.96,1.19-.04.83-.04,1.67,0,2.5.04.64.52,1.1,1.16,1.19.23.03.46.03.69.03,2.61,0,5.23,0,7.84,0,.2,0,.4,0,.6-.02.73-.09,1.21-.56,1.25-1.3.04-.8.02-1.61,0-2.41-.01-.5-.3-.86-.73-1.09-.2-.11-.42-.17-.78-.32.34-.3.55-.53.8-.71.84-.6,1.67-1.23,2.56-1.75,1.4-.82,2.23-2.03,2.72-3.53.96-2.94,1.95-5.88,2.89-8.83.16-.5.18-1.09.1-1.61ZM34.01,6.99c2.54,2.96,3.92,6.41,4.11,10.41h-7.49c-.06-3.04-.5-5.94-1.46-8.82,1.61-.53,3.19-1.05,4.84-1.59ZM13.07,18.77c.63-.18,4.21-.21,5.14-.06.55,1.91,1.58,2.87,3.06,2.86,1.49-.01,2.58-1.04,3.01-2.91,1.68-.07,3.38-.02,5.15-.04-.03,3.04-.47,5.9-1.49,8.73-.35-.05-.65-.1-.91-.14-.62-3.4-2.74-5.41-5.67-5.45-3.07-.04-5.14,1.85-5.91,5.44-.24.04-.52.09-.87.16-1.05-2.8-1.45-5.67-1.52-8.59ZM14.34,29.88c-.66-.3-1.17-.52-1.81-.81.48-.12.83-.21,1.25-.32.17.34.32.66.56,1.12ZM14.6,8.83c1.99.2,3.98.39,6.06.6v6.14c-.43.25-.89.44-1.25.74-.37.3-.65.72-1,1.12h-5.18c-.42-1.38.48-6.89,1.38-8.6ZM28.7,28.77c.41.09.76.16,1.29.28-.66.31-1.15.53-1.8.84.2-.45.35-.76.51-1.12ZM29.13,27.61c.96-2.92,1.44-5.86,1.49-8.85.76-.17,6.66-.18,7.47-.02.03.65-.09,1.24-.4,1.86-.64,1.28-1.18,2.6-1.76,3.91-.26.6-.52,1.21-.81,1.89-1.63-.16-2.48,1.16-3.77,1.8-.66-.18-1.4-.38-2.22-.6ZM33.07,6c-1.43.65-2.82,1.03-4.26,1.35-.63-1.09-1.21-2.17-1.86-3.2-.64-1.02-1.51-1.85-2.44-2.61,3.29.61,6.1,2.08,8.56,4.47ZM21.88,1.8c.35.1.67.12.92.27.62.35,1.26.69,1.8,1.15,1.16.96,2.37,2.9,2.86,4.39-1.83.36-3.67.52-5.58.53V1.8ZM24.9,9.16c1-.1,1.99-.25,2.97-.38.85,1.44,1.7,6.26,1.51,8.66-1.75.02-3.52,0-5.35.01-.44-.88-1.12-1.5-2.19-1.8-.03-2.07-.01-4.15,0-6.28,1.08-.07,2.08-.12,3.07-.22ZM23.03,18.6c0,1-.83,1.81-1.81,1.79-.99-.02-1.76-.84-1.73-1.86.02-.96.81-1.74,1.76-1.74.99,0,1.79.81,1.78,1.81ZM20.6,8.13c-1.84.03-3.66-.19-5.48-.5.48-2.52,3.31-5.49,5.44-5.74.17.6.21,5.04.05,6.24ZM17.97,1.55c-.95.8-1.82,1.64-2.46,2.67-.62.99-1.17,2.03-1.8,3.11-1.42-.25-2.81-.69-4.28-1.33,2.46-2.38,5.27-3.86,8.54-4.45ZM8.5,6.99c1.64.53,3.21,1.05,4.76,1.55-.33,1.45-.71,2.89-.95,4.35-.24,1.46-.34,2.95-.5,4.43-.63.17-6.47.19-7.4.01.18-3.94,1.57-7.38,4.1-10.34ZM11.87,18.67c.09,3.03.51,5.99,1.52,8.92-.43.12-.8.24-1.18.34-.36.1-.72.19-1.11.29-.42-.3-.85-.59-1.26-.89-.72-.54-1.43-1.08-2.43-.89-.41-.96-.78-1.85-1.17-2.74-.52-1.15-1.09-2.27-1.57-3.43-.19-.46-.22-.98-.35-1.6h7.56ZM8.41,35.28c-.74-.49-1.45-1.04-2.21-1.5-.94-.56-1.53-1.37-1.87-2.38-.44-1.27-.87-2.55-1.29-3.83-.58-1.74-1.15-3.49-1.73-5.23-.19-.57-.21-1.12.09-1.66.45-.81,1.19-.94,1.83-.28.31.32.59.72.78,1.13.79,1.75,1.53,3.52,2.29,5.29-.14.19-.27.34-.38.5-.77,1.1-.63,2.38.41,3.23.53.44,1.11.82,1.67,1.22.77.55,1.54,1.11,2.31,1.66.31.23.63.42,1.01.15.23-.64.23-.69-.28-1.07-1.14-.83-2.28-1.64-3.43-2.46-.19-.13-.38-.26-.55-.42-.49-.45-.58-1.04-.24-1.55.34-.51,1.02-.67,1.6-.32.56.35,1.09.75,1.62,1.14.88.64,1.75,1.28,2.82,1.6.91.27,1.62.89,1.97,1.8.62,1.64.89,3.37,1.36,5.16h-5.81c-.3-1.05-1.12-1.63-1.96-2.19ZM17.95,38.73c.12.86.08,1.68.05,2.47-.74.23-8.38.24-9.16.02v-2.49h9.11ZM17.9,34.52c-.2-.03-.4-.05-.6-.09-.2-.04-.39-.1-.61-.15-.17-.35-.33-.69-.24-1.1.5.41.99.82,1.49,1.23-.01.04-.02.08-.04.12ZM20.63,34.17c-.21-.02-.41,0-.58-.05-.87-.26-1.6-.75-2.26-1.37-1.09-1.03-2.1-2.58-2.74-4.22.27-.05.46-.09.66-.13,1.29,1.52,3.12,1.56,4.91,1.85v3.92ZM17.73,28.45c-.36-.13-.67-.41-1-.62-.09-1.84.6-3.22,2.07-4.16,1.56-1,3.2-1,4.81-.08,1.49.86,2.28,2.44,2.12,4.29-.31.19-.62.47-.98.59-2.33.79-4.68.8-7-.02ZM21.88,30.26c1.75-.3,3.59-.31,4.91-1.86.25.05.44.09.63.13-.92,2.91-3.56,5.6-5.54,5.61v-3.88ZM24.65,34.56s-.05-.1-.08-.14c.5-.41,1-.83,1.5-1.24-.04.35-.09.7-.13,1.07-.47.11-.88.21-1.28.31ZM33.69,38.78v2.5c-1.54.19-3.05.06-4.55.08-1.51.02-3.03.02-4.59,0v-2.55c.67-.17,8.11-.21,9.15-.04ZM41.21,22.34c-.45,1.33-.88,2.67-1.32,4-.51,1.55-1.04,3.1-1.54,4.66-.4,1.25-1.06,2.27-2.24,2.93-.7.39-1.33.91-1.99,1.35-.84.56-1.69,1.11-1.95,2.19h-5.73c.03-.25.02-.47.07-.68.26-1.09.56-2.17.78-3.26.35-1.72,1.34-2.8,3.02-3.29.37-.11.73-.32,1.06-.54.83-.57,1.63-1.18,2.46-1.74.25-.17.56-.31.85-.35.46-.07.84.14,1.07.56.24.43.22.9-.11,1.28-.19.21-.42.38-.66.55-1.16.84-2.34,1.67-3.49,2.52-.53.39-.53.42-.29,1.07.39.21.67.09.94-.1,1.33-.96,2.68-1.88,3.98-2.88,1.14-.87,1.28-2.2.44-3.35-.1-.14-.21-.27-.34-.44.77-1.79,1.53-3.59,2.33-5.36.18-.41.48-.79.8-1.11.6-.59,1.28-.46,1.72.25.34.55.34,1.13.14,1.74Z"/>
  </g>
</svg>